<svg xmlns="http://www.w3.org/2000/svg" width="24.995" height="30" viewBox="0 0 24.995 30">
  <g id="Icon_ionic-logo-apple" data-name="Icon ionic-logo-apple" transform="translate(-6.748 -4.5)">
    <path id="Path_68347" data-name="Path 68347" d="M25.308,10.821c-2.624,0-3.733,1.328-5.561,1.328-1.875,0-3.3-1.32-5.577-1.32a7.549,7.549,0,0,0-6.108,3.9C5.946,18.186,6.3,24.7,9.734,30.258c1.226,1.988,2.866,4.217,5.014,4.242h.039c1.867,0,2.421-1.3,4.991-1.312h.039c2.531,0,3.038,1.3,4.9,1.3h.039c2.148-.024,3.874-2.5,5.1-4.475a22.263,22.263,0,0,0,1.89-3.751c-4.96-2-5.756-9.449-.851-12.306a7.286,7.286,0,0,0-5.584-3.139Z" transform="translate(0 0)" fill="#103441"/>
    <path id="Path_68348" data-name="Path 68348" d="M22.936,4.5a6.149,6.149,0,0,0-4.008,2.222A5.593,5.593,0,0,0,17.62,11h.112A5.22,5.22,0,0,0,21.656,8.88a5.989,5.989,0,0,0,1.28-4.38Z" transform="translate(1.579)" fill="#103441"/>
  </g>
</svg>
