<svg xmlns="http://www.w3.org/2000/svg" width="32" height="32" viewBox="0 0 32 32">
  <g id="Group_24183" data-name="Group 24183" transform="translate(-863.347 -278.675)">
    <path id="Path_68292" data-name="Path 68292" d="M879.347,278.675a16,16,0,1,0,16,16A16,16,0,0,0,879.347,278.675Zm-.62,8.242a1.51,1.51,0,0,1,1.033.194c.822.495,1.126,2.442-.322,2.9a1.594,1.594,0,0,1-2.195-1.614A1.459,1.459,0,0,1,878.727,286.917Zm6.067,14.91a5.859,5.859,0,0,1-1.161.065,6.985,6.985,0,0,1-4.324-1.355,5.861,5.861,0,0,0,1.355-3.163,2.73,2.73,0,0,0,2.711,1.355,6.977,6.977,0,0,1,1.162-.065C885.934,298.894,886.3,301.465,884.794,301.827Zm.194-8.327c-.932.419-1.907,0-2.711.194a2.661,2.661,0,0,0-1.678,1.42,14.575,14.575,0,0,0-.322,2.582,5.258,5.258,0,0,1-4.454,4.131,5.782,5.782,0,0,1-2.194-.129,1.741,1.741,0,0,1-.065-2.84c.771-.426,1.762-.125,2.324-.323,1.543-.544,1.355-2.313,1.355-4.647a7.538,7.538,0,0,1,.129-2.646,1.752,1.752,0,0,1,2.84-.065c1.261-.751,5.393-1.586,5.616.645A1.7,1.7,0,0,1,884.988,293.5Z" transform="translate(0)" fill="#ff8f2f"/>
  </g>
</svg>
