<svg xmlns="http://www.w3.org/2000/svg" width="16.361" height="10.411" viewBox="0 0 16.361 10.411">
  <path id="Icon_material-group" data-name="Icon material-group" d="M12.655,11.962a2.231,2.231,0,1,0-2.231-2.231A2.222,2.222,0,0,0,12.655,11.962Zm-5.949,0A2.231,2.231,0,1,0,4.475,9.731,2.222,2.222,0,0,0,6.706,11.962Zm0,1.487c-1.733,0-5.206.87-5.206,2.6v1.859H11.911V16.052C11.911,14.319,8.438,13.449,6.706,13.449Zm5.949,0c-.216,0-.461.015-.721.037A3.138,3.138,0,0,1,13.4,16.052v1.859h4.462V16.052C17.861,14.319,14.388,13.449,12.655,13.449Z" transform="translate(-1.5 -7.5)" fill="#103441"/>
</svg>
