<svg xmlns="http://www.w3.org/2000/svg" width="45.859" height="43.653" viewBox="0 0 45.859 43.653">
  <path id="Icon_simple-hipchat" data-name="Icon simple-hipchat" d="M7.186,31.968s-.174-.123-.45-.334A16.479,16.479,0,0,1,0,18.626C0,8.995,9.055,1.181,20.218,1.181S40.446,8.995,40.446,18.626,31.394,36.078,20.226,36.078a23.191,23.191,0,0,1-4.254-.384l-.442-.076a21.048,21.048,0,0,1-10.6,3.354A1.086,1.086,0,0,1,4,37.112a20.469,20.469,0,0,0,3.182-5.143ZM9.65,24.341a13.072,13.072,0,0,0,10.539,4.869h.078a13.089,13.089,0,0,0,10.539-4.869,1.916,1.916,0,0,0,.46-.967.826.826,0,0,0-.753-.886.09.09,0,0,0-.035-.005,1.06,1.06,0,0,0-.553.187,15.4,15.4,0,0,1-9.7,3.465,14.838,14.838,0,0,1-9.707-3.47.777.777,0,0,0-.527-.206.813.813,0,0,0-.814.8,2.226,2.226,0,0,0,.452,1.084H9.65Z" transform="translate(6.097 -1.166) rotate(9)" fill="#4feacc"/>
</svg>
