<svg xmlns="http://www.w3.org/2000/svg" width="23.995" height="18" viewBox="0 0 23.995 18">
  <path id="Icon_ionic-logo-youtube" data-name="Icon ionic-logo-youtube" d="M23.839,8.475a3.644,3.644,0,0,0-3.469-3.806c-2.6-.122-5.245-.169-7.95-.169h-.844c-2.7,0-5.353.047-7.95.169A3.652,3.652,0,0,0,.164,8.484C.047,10.153,0,11.821,0,13.49S.047,16.827.159,18.5a3.656,3.656,0,0,0,3.464,3.82c2.728.127,5.526.183,8.371.178s5.639-.047,8.371-.178a3.656,3.656,0,0,0,3.469-3.82c.112-1.673.164-3.342.159-5.015S23.952,10.148,23.839,8.475ZM9.7,18.088V8.878l6.8,4.6Z" transform="translate(0 -4.5)" fill="#fff"/>
</svg>
