<svg xmlns="http://www.w3.org/2000/svg" width="22.12" height="18" viewBox="0 0 22.12 18">
  <path id="Icon_ionic-logo-twitter" data-name="Icon ionic-logo-twitter" d="M23.534,6.633a9.175,9.175,0,0,1-2.606.717,4.554,4.554,0,0,0,2-2.513,9.018,9.018,0,0,1-2.883,1.1,4.537,4.537,0,0,0-7.852,3.1,4.443,4.443,0,0,0,.117,1.036A12.861,12.861,0,0,1,2.951,5.33,4.547,4.547,0,0,0,4.362,11.4,4.433,4.433,0,0,1,2.3,10.828v.056a4.542,4.542,0,0,0,3.642,4.453,4.568,4.568,0,0,1-1.2.159,4.281,4.281,0,0,1-.853-.084,4.545,4.545,0,0,0,4.242,3.155A9.1,9.1,0,0,1,2.5,20.513a9.2,9.2,0,0,1-1.083-.066A12.685,12.685,0,0,0,8.36,22.5,12.836,12.836,0,0,0,21.284,9.572c0-.2,0-.394-.014-.586A9.238,9.238,0,0,0,23.534,6.633Z" transform="translate(-1.413 -4.5)" fill="#fff"/>
</svg>
