<svg xmlns="http://www.w3.org/2000/svg" width="21" height="21" viewBox="0 0 21 21">
  <g id="Icon_feather-instagram" data-name="Icon feather-instagram" transform="translate(-1.5 -1.5)">
    <path id="Path_68349" data-name="Path 68349" d="M7.5,3h9A4.5,4.5,0,0,1,21,7.5v9A4.5,4.5,0,0,1,16.5,21h-9A4.5,4.5,0,0,1,3,16.5v-9A4.5,4.5,0,0,1,7.5,3Z" fill="none" stroke="#fff" stroke-linecap="round" stroke-linejoin="round" stroke-width="3"/>
    <path id="Path_68350" data-name="Path 68350" d="M19.226,15.007a3.6,3.6,0,1,1-3.033-3.033,3.6,3.6,0,0,1,3.033,3.033Z" transform="translate(-3.626 -3.574)" fill="none" stroke="#fff" stroke-linecap="round" stroke-linejoin="round" stroke-width="3"/>
    <path id="Path_68351" data-name="Path 68351" d="M26.25,9.75h0" transform="translate(-9.3 -2.7)" fill="none" stroke="#fff" stroke-linecap="round" stroke-linejoin="round" stroke-width="3"/>
  </g>
</svg>
