<svg xmlns="http://www.w3.org/2000/svg" width="27.099" height="30" viewBox="0 0 27.099 30">
  <path id="Icon_simple-googleplay" data-name="Icon simple-googleplay" d="M1.815,0A1.171,1.171,0,0,0,1.74.385V29.421A.726.726,0,0,0,1.97,30L16.239,14.884ZM17.2,15.885l3.689,3.806-5.266,3S8.93,26.5,5.239,28.615Zm1-1.039,3.958,4.115c.62-.345,5.464-3.115,6.155-3.5.73-.422.656-1,.036-1.307-.574-.319-5.417-3.094-6.15-3.544l-4,4.24Zm-1-1,3.73-3.961L15.6,6.846S6.926,1.881,4.039.224L17.2,13.846Z" transform="translate(-1.74)" fill="#103441"/>
</svg>
